<svg xmlns="http://www.w3.org/2000/svg" xmlns:xlink="http://www.w3.org/1999/xlink" width="378" zoomAndPan="magnify" viewBox="0 0 283.5 283.500005" height="378" preserveAspectRatio="xMidYMid meet" version="1.0"><defs><g/><clipPath id="dee6765cf2"><path d="M 0.582031 35 L 46 35 L 46 46 L 0.582031 46 Z M 0.582031 35 " clip-rule="nonzero"/></clipPath><clipPath id="8741a97343"><rect x="0" width="46" y="0" height="11"/></clipPath><clipPath id="cd3e61a41f"><rect x="0" width="228" y="0" height="55"/></clipPath></defs><g transform="matrix(1, 0, 0, 1, 32, 114)"><g clip-path="url(#cd3e61a41f)"><path stroke-linecap="butt" transform="matrix(0.00000000130686, 0.748773, -0.748773, 0.00000000130686, 65.55674, 1.814027)" fill="none" stroke-linejoin="miter" d="M -0.00203867 0.498343 L 68.625846 0.498343 " stroke="#ffffff" stroke-width="1" stroke-opacity="1" stroke-miterlimit="4"/><g fill="#0b1220" fill-opacity="1"><g transform="translate(45.179496, 41.953073)"><g><path d="M 23.5 -22.359375 L 23.5 0 L 17.1875 0 L 17.1875 -8.71875 L 8.5625 -8.71875 L 8.5625 0 L 2.234375 0 L 2.234375 -22.359375 L 8.5625 -22.359375 L 8.5625 -13.953125 L 17.1875 -13.953125 L 17.1875 -22.359375 Z M 23.5 -22.359375 "/></g></g></g><g fill="#0b1220" fill-opacity="1"><g transform="translate(71.689718, 41.953073)"><g><path d="M 12.546875 0.453125 C 9.222656 0.453125 6.640625 -0.453125 4.796875 -2.265625 C 2.960938 -4.078125 2.046875 -6.644531 2.046875 -9.96875 L 2.046875 -22.359375 L 8.375 -22.359375 L 8.375 -10.15625 C 8.375 -6.582031 9.785156 -4.796875 12.609375 -4.796875 C 15.421875 -4.796875 16.828125 -6.582031 16.828125 -10.15625 L 16.828125 -22.359375 L 23.0625 -22.359375 L 23.0625 -9.96875 C 23.0625 -6.644531 22.140625 -4.078125 20.296875 -2.265625 C 18.453125 -0.453125 15.867188 0.453125 12.546875 0.453125 Z M 12.546875 0.453125 "/></g></g></g><g fill="#0b1220" fill-opacity="1"><g transform="translate(97.561136, 41.953073)"><g><path d="M 19.421875 -11.65625 C 20.691406 -11.207031 21.6875 -10.507812 22.40625 -9.5625 C 23.132812 -8.613281 23.5 -7.46875 23.5 -6.125 C 23.5 -4.164062 22.710938 -2.65625 21.140625 -1.59375 C 19.566406 -0.53125 17.289062 0 14.3125 0 L 2.234375 0 L 2.234375 -22.359375 L 13.671875 -22.359375 C 16.523438 -22.359375 18.695312 -21.828125 20.1875 -20.765625 C 21.675781 -19.710938 22.421875 -18.296875 22.421875 -16.515625 C 22.421875 -15.453125 22.160156 -14.5 21.640625 -13.65625 C 21.117188 -12.8125 20.378906 -12.144531 19.421875 -11.65625 Z M 8.5 -17.796875 L 8.5 -13.484375 L 12.84375 -13.484375 C 14.96875 -13.484375 16.03125 -14.207031 16.03125 -15.65625 C 16.03125 -17.082031 14.96875 -17.796875 12.84375 -17.796875 Z M 13.796875 -4.5625 C 16.015625 -4.5625 17.125 -5.316406 17.125 -6.828125 C 17.125 -8.347656 16.015625 -9.109375 13.796875 -9.109375 L 8.5 -9.109375 L 8.5 -4.5625 Z M 13.796875 -4.5625 "/></g></g></g><g fill="#0b1220" fill-opacity="1"><g transform="translate(122.889586, 41.953073)"><g><path d="M 10.09375 0.453125 C 8.28125 0.453125 6.519531 0.226562 4.8125 -0.21875 C 3.113281 -0.664062 1.734375 -1.265625 0.671875 -2.015625 L 2.75 -6.671875 C 3.75 -6.015625 4.90625 -5.484375 6.21875 -5.078125 C 7.539062 -4.671875 8.84375 -4.46875 10.125 -4.46875 C 12.550781 -4.46875 13.765625 -5.078125 13.765625 -6.296875 C 13.765625 -6.929688 13.414062 -7.398438 12.71875 -7.703125 C 12.03125 -8.015625 10.921875 -8.34375 9.390625 -8.6875 C 7.703125 -9.050781 6.296875 -9.4375 5.171875 -9.84375 C 4.046875 -10.257812 3.078125 -10.925781 2.265625 -11.84375 C 1.453125 -12.757812 1.046875 -13.992188 1.046875 -15.546875 C 1.046875 -16.910156 1.421875 -18.140625 2.171875 -19.234375 C 2.921875 -20.335938 4.035156 -21.207031 5.515625 -21.84375 C 6.992188 -22.476562 8.804688 -22.796875 10.953125 -22.796875 C 12.421875 -22.796875 13.867188 -22.628906 15.296875 -22.296875 C 16.722656 -21.972656 17.976562 -21.492188 19.0625 -20.859375 L 17.125 -16.15625 C 14.988281 -17.3125 12.921875 -17.890625 10.921875 -17.890625 C 9.660156 -17.890625 8.742188 -17.703125 8.171875 -17.328125 C 7.597656 -16.953125 7.3125 -16.46875 7.3125 -15.875 C 7.3125 -15.28125 7.648438 -14.832031 8.328125 -14.53125 C 9.015625 -14.226562 10.113281 -13.921875 11.625 -13.609375 C 13.332031 -13.242188 14.742188 -12.851562 15.859375 -12.4375 C 16.972656 -12.019531 17.941406 -11.359375 18.765625 -10.453125 C 19.585938 -9.554688 20 -8.328125 20 -6.765625 C 20 -5.429688 19.625 -4.21875 18.875 -3.125 C 18.125 -2.039062 17.003906 -1.171875 15.515625 -0.515625 C 14.023438 0.128906 12.21875 0.453125 10.09375 0.453125 Z M 10.09375 0.453125 "/></g></g></g><g fill="#0b1220" fill-opacity="1"><g transform="translate(144.960229, 41.953073)"><g><path d="M 4.5 0.28125 C 3.476562 0.28125 2.613281 -0.0546875 1.90625 -0.734375 C 1.207031 -1.410156 0.859375 -2.273438 0.859375 -3.328125 C 0.859375 -4.390625 1.203125 -5.25 1.890625 -5.90625 C 2.585938 -6.570312 3.457031 -6.90625 4.5 -6.90625 C 5.5625 -6.90625 6.429688 -6.570312 7.109375 -5.90625 C 7.796875 -5.25 8.140625 -4.390625 8.140625 -3.328125 C 8.140625 -2.273438 7.789062 -1.410156 7.09375 -0.734375 C 6.40625 -0.0546875 5.539062 0.28125 4.5 0.28125 Z M 4.5 0.28125 "/></g></g></g><g fill="#0ca5a5" fill-opacity="1"><g transform="translate(153.390911, 45.222707)"><g><path d="M 1.671875 -11.171875 L 6.390625 -11.171875 C 7.566406 -11.171875 8.613281 -10.9375 9.53125 -10.46875 C 10.445312 -10 11.15625 -9.34375 11.65625 -8.5 C 12.164062 -7.65625 12.421875 -6.6875 12.421875 -5.59375 C 12.421875 -4.488281 12.164062 -3.515625 11.65625 -2.671875 C 11.15625 -1.828125 10.445312 -1.171875 9.53125 -0.703125 C 8.613281 -0.234375 7.566406 0 6.390625 0 L 1.671875 0 Z M 6.296875 -1.390625 C 7.203125 -1.390625 7.992188 -1.5625 8.671875 -1.90625 C 9.359375 -2.257812 9.890625 -2.753906 10.265625 -3.390625 C 10.640625 -4.023438 10.828125 -4.757812 10.828125 -5.59375 C 10.828125 -6.414062 10.640625 -7.144531 10.265625 -7.78125 C 9.890625 -8.414062 9.359375 -8.90625 8.671875 -9.25 C 7.992188 -9.601562 7.203125 -9.78125 6.296875 -9.78125 L 3.28125 -9.78125 L 3.28125 -1.390625 Z M 6.296875 -1.390625 "/></g></g></g><g fill="#0ca5a5" fill-opacity="1"><g transform="translate(168.195473, 45.222707)"><g><path d="M 9.78125 -1.390625 L 9.78125 0 L 1.671875 0 L 1.671875 -11.171875 L 9.5625 -11.171875 L 9.5625 -9.78125 L 3.28125 -9.78125 L 3.28125 -6.359375 L 8.875 -6.359375 L 8.875 -5 L 3.28125 -5 L 3.28125 -1.390625 Z M 9.78125 -1.390625 "/></g></g></g><g fill="#0ca5a5" fill-opacity="1"><g transform="translate(180.508722, 45.222707)"><g><path d="M 4.9375 0.125 C 4.09375 0.125 3.28125 -0.00390625 2.5 -0.265625 C 1.71875 -0.523438 1.101562 -0.863281 0.65625 -1.28125 L 1.25 -2.515625 C 1.675781 -2.140625 2.21875 -1.832031 2.875 -1.59375 C 3.539062 -1.351562 4.226562 -1.234375 4.9375 -1.234375 C 5.863281 -1.234375 6.554688 -1.390625 7.015625 -1.703125 C 7.472656 -2.015625 7.703125 -2.429688 7.703125 -2.953125 C 7.703125 -3.335938 7.578125 -3.648438 7.328125 -3.890625 C 7.078125 -4.128906 6.765625 -4.3125 6.390625 -4.4375 C 6.023438 -4.5625 5.507812 -4.707031 4.84375 -4.875 C 4 -5.070312 3.316406 -5.269531 2.796875 -5.46875 C 2.285156 -5.675781 1.84375 -5.988281 1.46875 -6.40625 C 1.101562 -6.832031 0.921875 -7.398438 0.921875 -8.109375 C 0.921875 -8.703125 1.078125 -9.238281 1.390625 -9.71875 C 1.710938 -10.195312 2.191406 -10.582031 2.828125 -10.875 C 3.460938 -11.164062 4.253906 -11.3125 5.203125 -11.3125 C 5.867188 -11.3125 6.519531 -11.222656 7.15625 -11.046875 C 7.789062 -10.878906 8.335938 -10.632812 8.796875 -10.3125 L 8.265625 -9.03125 C 7.796875 -9.332031 7.296875 -9.5625 6.765625 -9.71875 C 6.234375 -9.875 5.710938 -9.953125 5.203125 -9.953125 C 4.296875 -9.953125 3.613281 -9.785156 3.15625 -9.453125 C 2.707031 -9.117188 2.484375 -8.691406 2.484375 -8.171875 C 2.484375 -7.785156 2.609375 -7.472656 2.859375 -7.234375 C 3.117188 -6.992188 3.4375 -6.804688 3.8125 -6.671875 C 4.195312 -6.546875 4.710938 -6.410156 5.359375 -6.265625 C 6.203125 -6.054688 6.878906 -5.847656 7.390625 -5.640625 C 7.898438 -5.441406 8.335938 -5.132812 8.703125 -4.71875 C 9.078125 -4.3125 9.265625 -3.753906 9.265625 -3.046875 C 9.265625 -2.460938 9.101562 -1.925781 8.78125 -1.4375 C 8.457031 -0.957031 7.972656 -0.578125 7.328125 -0.296875 C 6.679688 -0.015625 5.882812 0.125 4.9375 0.125 Z M 4.9375 0.125 "/></g></g></g><g fill="#0ca5a5" fill-opacity="1"><g transform="translate(192.039436, 45.222707)"><g><path d="M 1.671875 -11.171875 L 3.28125 -11.171875 L 3.28125 0 L 1.671875 0 Z M 1.671875 -11.171875 "/></g></g></g><g fill="#0ca5a5" fill-opacity="1"><g transform="translate(198.603484, 45.222707)"><g><path d="M 9.421875 -5.65625 L 10.953125 -5.65625 L 10.953125 -1.296875 C 10.398438 -0.835938 9.753906 -0.484375 9.015625 -0.234375 C 8.285156 0.00390625 7.519531 0.125 6.71875 0.125 C 5.59375 0.125 4.578125 -0.117188 3.671875 -0.609375 C 2.765625 -1.109375 2.050781 -1.789062 1.53125 -2.65625 C 1.019531 -3.519531 0.765625 -4.5 0.765625 -5.59375 C 0.765625 -6.675781 1.019531 -7.65625 1.53125 -8.53125 C 2.050781 -9.40625 2.765625 -10.085938 3.671875 -10.578125 C 4.585938 -11.066406 5.613281 -11.3125 6.75 -11.3125 C 7.644531 -11.3125 8.457031 -11.160156 9.1875 -10.859375 C 9.914062 -10.566406 10.535156 -10.140625 11.046875 -9.578125 L 10.0625 -8.59375 C 9.164062 -9.457031 8.082031 -9.890625 6.8125 -9.890625 C 5.96875 -9.890625 5.207031 -9.703125 4.53125 -9.328125 C 3.851562 -8.960938 3.320312 -8.453125 2.9375 -7.796875 C 2.550781 -7.140625 2.359375 -6.40625 2.359375 -5.59375 C 2.359375 -4.78125 2.550781 -4.046875 2.9375 -3.390625 C 3.320312 -2.734375 3.851562 -2.21875 4.53125 -1.84375 C 5.207031 -1.476562 5.960938 -1.296875 6.796875 -1.296875 C 7.796875 -1.296875 8.671875 -1.535156 9.421875 -2.015625 Z M 9.421875 -5.65625 "/></g></g></g><g fill="#0ca5a5" fill-opacity="1"><g transform="translate(212.545671, 45.222707)"><g><path d="M 11.296875 -11.171875 L 11.296875 0 L 9.984375 0 L 3.28125 -8.328125 L 3.28125 0 L 1.671875 0 L 1.671875 -11.171875 L 2.984375 -11.171875 L 9.6875 -2.84375 L 9.6875 -11.171875 Z M 11.296875 -11.171875 "/></g></g></g><g clip-path="url(#dee6765cf2)"><g transform="matrix(1, 0, 0, 1, 0.000000000000003553, 35)"><g clip-path="url(#8741a97343)"><g fill="#6a7799" fill-opacity="1"><g transform="translate(0.636546, 7.352411)"><g><path d="M 3 -5.59375 C 3.71875 -5.59375 4.273438 -5.421875 4.671875 -5.078125 C 5.078125 -4.734375 5.28125 -4.265625 5.28125 -3.671875 C 5.28125 -3.078125 5.078125 -2.609375 4.671875 -2.265625 C 4.273438 -1.929688 3.71875 -1.765625 3 -1.765625 L 1.5 -1.765625 L 1.5 0 L 0.90625 0 L 0.90625 -5.59375 Z M 2.984375 -2.28125 C 3.535156 -2.28125 3.957031 -2.398438 4.25 -2.640625 C 4.539062 -2.890625 4.6875 -3.234375 4.6875 -3.671875 C 4.6875 -4.117188 4.539062 -4.460938 4.25 -4.703125 C 3.957031 -4.953125 3.535156 -5.078125 2.984375 -5.078125 L 1.5 -5.078125 L 1.5 -2.28125 Z M 2.984375 -2.28125 "/></g></g></g><g fill="#6a7799" fill-opacity="1"><g transform="translate(5.868011, 7.352411)"><g><path d="M 2.5 0.046875 C 2.101562 0.046875 1.738281 -0.046875 1.40625 -0.234375 C 1.082031 -0.421875 0.828125 -0.675781 0.640625 -1 C 0.460938 -1.320312 0.375 -1.6875 0.375 -2.09375 C 0.375 -2.507812 0.460938 -2.878906 0.640625 -3.203125 C 0.828125 -3.523438 1.082031 -3.773438 1.40625 -3.953125 C 1.738281 -4.140625 2.101562 -4.234375 2.5 -4.234375 C 2.90625 -4.234375 3.269531 -4.140625 3.59375 -3.953125 C 3.925781 -3.773438 4.179688 -3.523438 4.359375 -3.203125 C 4.546875 -2.878906 4.640625 -2.507812 4.640625 -2.09375 C 4.640625 -1.6875 4.546875 -1.320312 4.359375 -1 C 4.179688 -0.675781 3.925781 -0.421875 3.59375 -0.234375 C 3.269531 -0.046875 2.90625 0.046875 2.5 0.046875 Z M 2.5 -0.46875 C 2.800781 -0.46875 3.070312 -0.535156 3.3125 -0.671875 C 3.550781 -0.804688 3.734375 -1 3.859375 -1.25 C 3.992188 -1.5 4.0625 -1.78125 4.0625 -2.09375 C 4.0625 -2.414062 3.992188 -2.703125 3.859375 -2.953125 C 3.734375 -3.203125 3.550781 -3.394531 3.3125 -3.53125 C 3.070312 -3.664062 2.800781 -3.734375 2.5 -3.734375 C 2.207031 -3.734375 1.941406 -3.664062 1.703125 -3.53125 C 1.460938 -3.394531 1.273438 -3.203125 1.140625 -2.953125 C 1.003906 -2.703125 0.9375 -2.414062 0.9375 -2.09375 C 0.9375 -1.78125 1.003906 -1.5 1.140625 -1.25 C 1.273438 -1 1.460938 -0.804688 1.703125 -0.671875 C 1.941406 -0.535156 2.207031 -0.46875 2.5 -0.46875 Z M 2.5 -0.46875 "/></g></g></g><g fill="#6a7799" fill-opacity="1"><g transform="translate(10.356695, 7.352411)"><g><path d="M 6.953125 -4.203125 L 5.359375 0 L 4.828125 0 L 3.5 -3.4375 L 2.1875 0 L 1.640625 0 L 0.0625 -4.203125 L 0.609375 -4.203125 L 1.921875 -0.625 L 3.28125 -4.203125 L 3.765625 -4.203125 L 5.109375 -0.625 L 6.4375 -4.203125 Z M 6.953125 -4.203125 "/></g></g></g><g fill="#6a7799" fill-opacity="1"><g transform="translate(16.8581, 7.352411)"><g><path d="M 4.453125 -1.921875 L 0.9375 -1.921875 C 0.96875 -1.484375 1.132812 -1.128906 1.4375 -0.859375 C 1.738281 -0.597656 2.125 -0.46875 2.59375 -0.46875 C 2.851562 -0.46875 3.09375 -0.515625 3.3125 -0.609375 C 3.53125 -0.703125 3.71875 -0.835938 3.875 -1.015625 L 4.1875 -0.640625 C 4 -0.421875 3.765625 -0.25 3.484375 -0.125 C 3.210938 -0.0078125 2.910156 0.046875 2.578125 0.046875 C 2.140625 0.046875 1.753906 -0.046875 1.421875 -0.234375 C 1.085938 -0.421875 0.828125 -0.675781 0.640625 -1 C 0.460938 -1.320312 0.375 -1.6875 0.375 -2.09375 C 0.375 -2.507812 0.460938 -2.878906 0.640625 -3.203125 C 0.816406 -3.523438 1.0625 -3.773438 1.375 -3.953125 C 1.6875 -4.140625 2.035156 -4.234375 2.421875 -4.234375 C 2.804688 -4.234375 3.148438 -4.140625 3.453125 -3.953125 C 3.765625 -3.773438 4.007812 -3.523438 4.1875 -3.203125 C 4.363281 -2.878906 4.453125 -2.507812 4.453125 -2.09375 Z M 2.421875 -3.75 C 2.015625 -3.75 1.671875 -3.617188 1.390625 -3.359375 C 1.117188 -3.097656 0.96875 -2.757812 0.9375 -2.34375 L 3.90625 -2.34375 C 3.875 -2.757812 3.71875 -3.097656 3.4375 -3.359375 C 3.164062 -3.617188 2.828125 -3.75 2.421875 -3.75 Z M 2.421875 -3.75 "/></g></g></g><g fill="#6a7799" fill-opacity="1"><g transform="translate(21.282884, 7.352411)"><g><path d="M 1.328125 -3.375 C 1.460938 -3.65625 1.660156 -3.867188 1.921875 -4.015625 C 2.191406 -4.160156 2.519531 -4.234375 2.90625 -4.234375 L 2.90625 -3.6875 L 2.765625 -3.6875 C 2.328125 -3.6875 1.984375 -3.550781 1.734375 -3.28125 C 1.484375 -3.007812 1.359375 -2.628906 1.359375 -2.140625 L 1.359375 0 L 0.796875 0 L 0.796875 -4.203125 L 1.328125 -4.203125 Z M 1.328125 -3.375 "/></g></g></g><g fill="#6a7799" fill-opacity="1"><g transform="translate(23.982478, 7.352411)"><g><path d="M 4.453125 -1.921875 L 0.9375 -1.921875 C 0.96875 -1.484375 1.132812 -1.128906 1.4375 -0.859375 C 1.738281 -0.597656 2.125 -0.46875 2.59375 -0.46875 C 2.851562 -0.46875 3.09375 -0.515625 3.3125 -0.609375 C 3.53125 -0.703125 3.71875 -0.835938 3.875 -1.015625 L 4.1875 -0.640625 C 4 -0.421875 3.765625 -0.25 3.484375 -0.125 C 3.210938 -0.0078125 2.910156 0.046875 2.578125 0.046875 C 2.140625 0.046875 1.753906 -0.046875 1.421875 -0.234375 C 1.085938 -0.421875 0.828125 -0.675781 0.640625 -1 C 0.460938 -1.320312 0.375 -1.6875 0.375 -2.09375 C 0.375 -2.507812 0.460938 -2.878906 0.640625 -3.203125 C 0.816406 -3.523438 1.0625 -3.773438 1.375 -3.953125 C 1.6875 -4.140625 2.035156 -4.234375 2.421875 -4.234375 C 2.804688 -4.234375 3.148438 -4.140625 3.453125 -3.953125 C 3.765625 -3.773438 4.007812 -3.523438 4.1875 -3.203125 C 4.363281 -2.878906 4.453125 -2.507812 4.453125 -2.09375 Z M 2.421875 -3.75 C 2.015625 -3.75 1.671875 -3.617188 1.390625 -3.359375 C 1.117188 -3.097656 0.96875 -2.757812 0.9375 -2.34375 L 3.90625 -2.34375 C 3.875 -2.757812 3.71875 -3.097656 3.4375 -3.359375 C 3.164062 -3.617188 2.828125 -3.75 2.421875 -3.75 Z M 2.421875 -3.75 "/></g></g></g><g fill="#6a7799" fill-opacity="1"><g transform="translate(28.407261, 7.352411)"><g><path d="M 4.625 -5.921875 L 4.625 0 L 4.078125 0 L 4.078125 -0.828125 C 3.910156 -0.546875 3.6875 -0.328125 3.40625 -0.171875 C 3.125 -0.0234375 2.804688 0.046875 2.453125 0.046875 C 2.066406 0.046875 1.710938 -0.0390625 1.390625 -0.21875 C 1.066406 -0.40625 0.816406 -0.660156 0.640625 -0.984375 C 0.460938 -1.316406 0.375 -1.6875 0.375 -2.09375 C 0.375 -2.507812 0.460938 -2.878906 0.640625 -3.203125 C 0.816406 -3.535156 1.066406 -3.789062 1.390625 -3.96875 C 1.710938 -4.144531 2.066406 -4.234375 2.453125 -4.234375 C 2.796875 -4.234375 3.101562 -4.160156 3.375 -4.015625 C 3.65625 -3.878906 3.882812 -3.675781 4.0625 -3.40625 L 4.0625 -5.921875 Z M 2.5 -0.46875 C 2.800781 -0.46875 3.066406 -0.535156 3.296875 -0.671875 C 3.535156 -0.804688 3.722656 -1 3.859375 -1.25 C 3.992188 -1.5 4.0625 -1.78125 4.0625 -2.09375 C 4.0625 -2.414062 3.992188 -2.703125 3.859375 -2.953125 C 3.722656 -3.203125 3.535156 -3.394531 3.296875 -3.53125 C 3.066406 -3.664062 2.800781 -3.734375 2.5 -3.734375 C 2.207031 -3.734375 1.941406 -3.664062 1.703125 -3.53125 C 1.460938 -3.394531 1.273438 -3.203125 1.140625 -2.953125 C 1.003906 -2.703125 0.9375 -2.414062 0.9375 -2.09375 C 0.9375 -1.78125 1.003906 -1.5 1.140625 -1.25 C 1.273438 -1 1.460938 -0.804688 1.703125 -0.671875 C 1.941406 -0.535156 2.207031 -0.46875 2.5 -0.46875 Z M 2.5 -0.46875 "/></g></g></g><g fill="#6a7799" fill-opacity="1"><g transform="translate(33.423086, 7.352411)"><g/></g></g><g fill="#6a7799" fill-opacity="1"><g transform="translate(35.116334, 7.352411)"><g><path d="M 2.953125 -4.234375 C 3.347656 -4.234375 3.703125 -4.144531 4.015625 -3.96875 C 4.335938 -3.789062 4.585938 -3.535156 4.765625 -3.203125 C 4.953125 -2.878906 5.046875 -2.507812 5.046875 -2.09375 C 5.046875 -1.6875 4.953125 -1.316406 4.765625 -0.984375 C 4.585938 -0.660156 4.335938 -0.40625 4.015625 -0.21875 C 3.703125 -0.0390625 3.347656 0.046875 2.953125 0.046875 C 2.597656 0.046875 2.28125 -0.0234375 2 -0.171875 C 1.726562 -0.328125 1.503906 -0.546875 1.328125 -0.828125 L 1.328125 0 L 0.796875 0 L 0.796875 -5.921875 L 1.359375 -5.921875 L 1.359375 -3.40625 C 1.535156 -3.675781 1.757812 -3.878906 2.03125 -4.015625 C 2.300781 -4.160156 2.609375 -4.234375 2.953125 -4.234375 Z M 2.921875 -0.46875 C 3.210938 -0.46875 3.476562 -0.535156 3.71875 -0.671875 C 3.957031 -0.804688 4.144531 -1 4.28125 -1.25 C 4.414062 -1.5 4.484375 -1.78125 4.484375 -2.09375 C 4.484375 -2.414062 4.414062 -2.703125 4.28125 -2.953125 C 4.144531 -3.203125 3.957031 -3.394531 3.71875 -3.53125 C 3.476562 -3.664062 3.210938 -3.734375 2.921875 -3.734375 C 2.617188 -3.734375 2.347656 -3.664062 2.109375 -3.53125 C 1.867188 -3.394531 1.679688 -3.203125 1.546875 -2.953125 C 1.410156 -2.703125 1.34375 -2.414062 1.34375 -2.09375 C 1.34375 -1.78125 1.410156 -1.5 1.546875 -1.25 C 1.679688 -1 1.867188 -0.804688 2.109375 -0.671875 C 2.347656 -0.535156 2.617188 -0.46875 2.921875 -0.46875 Z M 2.921875 -0.46875 "/></g></g></g><g fill="#6a7799" fill-opacity="1"><g transform="translate(40.01236, 7.352411)"><g><path d="M 4.3125 -4.203125 L 2.21875 0.5 C 2.050781 0.894531 1.851562 1.175781 1.625 1.34375 C 1.40625 1.507812 1.140625 1.59375 0.828125 1.59375 C 0.617188 1.59375 0.425781 1.554688 0.25 1.484375 C 0.0703125 1.421875 -0.078125 1.328125 -0.203125 1.203125 L 0.0625 0.78125 C 0.28125 1 0.535156 1.109375 0.828125 1.109375 C 1.023438 1.109375 1.191406 1.050781 1.328125 0.9375 C 1.460938 0.832031 1.585938 0.65625 1.703125 0.40625 L 1.890625 -0.015625 L 0.015625 -4.203125 L 0.59375 -4.203125 L 2.1875 -0.625 L 3.765625 -4.203125 Z M 4.3125 -4.203125 "/></g></g></g></g></g></g></g></g></svg>